<svg width="200" height="150" viewBox="0 0 200 150" fill="none" xmlns="http://www.w3.org/2000/svg">
<path d="M91.6667 52.2917C91.6667 95.1333 59.2333 139.95 8.33333 150L0.133333 132.283C18.5917 125.325 34.825 101.1 36.6333 84.4C15.875 81.1333 0 63.175 0 41.4917C0 14.975 21.5333 0 43.325 0C68.45 0 91.6667 19.2083 91.6667 52.2917V52.2917ZM200 52.2917C200 95.1333 167.567 139.95 116.667 150L108.467 132.283C126.925 125.325 143.158 101.1 144.967 84.4C124.208 81.1333 108.333 63.175 108.333 41.4917C108.333 14.975 129.867 0 151.658 0C176.783 0 200 19.2083 200 52.2917V52.2917Z" fill="#FCECBD"/>
</svg>
